<svg width="73" height="73" viewBox="0 0 73 73" fill="none" xmlns="http://www.w3.org/2000/svg">
<path fill-rule="evenodd" clip-rule="evenodd" d="M59.0875 36.1412C57.855 38.3887 55.4625 39.875 52.7438 39.875H25.7375L21.75 47.125H65.25V54.375H21.75C16.24 54.375 12.76 48.4662 15.4062 43.6087L20.3 34.7637L7.25 7.25H0V0H11.8538L15.2613 7.25H68.9112C71.6663 7.25 73.4062 10.2225 72.065 12.615L59.0875 36.1412ZM62.7485 14.5H18.7047L27.296 32.625H52.7435L62.7485 14.5ZM21.75 58C17.7625 58 14.5363 61.2625 14.5363 65.25C14.5363 69.2375 17.7625 72.5 21.75 72.5C25.7375 72.5 29 69.2375 29 65.25C29 61.2625 25.7375 58 21.75 58ZM50.7863 65.25C50.7863 61.2625 54.0125 58 58 58C61.9875 58 65.25 61.2625 65.25 65.25C65.25 69.2375 61.9875 72.5 58 72.5C54.0125 72.5 50.7863 69.2375 50.7863 65.25Z" fill="white"/>
</svg>
