<svg width="62" height="62" viewBox="0 0 62 62" fill="none" xmlns="http://www.w3.org/2000/svg">
<path fill-rule="evenodd" clip-rule="evenodd" d="M28.0833 2.16666C18.0858 2.16666 10 10.2525 10 20.25C10 33.8125 28.0833 53.8333 28.0833 53.8333C28.0833 53.8333 46.1667 33.8125 46.1667 20.25C46.1667 10.2525 38.0808 2.16666 28.0833 2.16666ZM15.1667 20.25C15.1667 13.12 20.9533 7.33332 28.0833 7.33332C35.2133 7.33332 41 13.12 41 20.25C41 27.69 33.56 38.8242 28.0833 45.7733C22.71 38.8758 15.1667 27.6125 15.1667 20.25ZM21.625 20.25C21.625 16.6832 24.5165 13.7917 28.0833 13.7917C30.3907 13.7917 32.5227 15.0226 33.6764 17.0208C34.8301 19.019 34.8301 21.4809 33.6764 23.4792C32.5227 25.4774 30.3907 26.7083 28.0833 26.7083C24.5165 26.7083 21.625 23.8168 21.625 20.25Z" fill="black" fill-opacity="0.54"/>
</svg>
