<svg width="1440" height="541" viewBox="0 0 1440 541" fill="none" xmlns="http://www.w3.org/2000/svg">
<path d="M269.373 92.8229C271.78 91.8935 275.458 92.0035 277.57 93.0627C279.682 94.122 279.432 95.741 277.025 96.6703C241.673 110.281 223.736 105.115 205.436 99.8482C143.292 81.9601 138.797 127.09 67.2074 106.484C52.6307 102.287 38.3265 98.1693 9.62731 109.222C7.22057 110.151 3.54235 110.041 1.43078 108.982C-0.680792 107.923 -0.431036 106.304 1.9757 105.375C37.3275 91.7636 55.2645 96.9302 73.5648 102.197C135.709 120.085 140.204 74.9548 211.771 95.5611C226.37 99.7583 240.674 103.876 269.373 92.8229ZM9.62731 41.1673C7.22057 42.0967 3.54235 41.9868 1.43078 40.9275C-0.680792 39.8682 -0.431036 38.2493 1.9757 37.3199C37.3275 23.709 55.2645 28.8755 73.5648 34.142C135.709 52.0301 140.204 6.90018 211.771 27.5064C226.347 31.7036 240.652 35.8209 269.351 24.7683C271.757 23.8389 275.436 23.9488 277.547 25.0081C279.659 26.0674 279.409 27.6863 277.002 28.6157C241.651 42.2266 223.714 37.0601 205.413 31.7936C143.292 13.9055 138.797 59.0454 67.2074 38.4292C52.6307 34.232 38.3265 30.1147 9.62731 41.1673ZM9.62731 63.8522C7.22057 64.7816 3.54235 64.6717 1.43078 63.6124C-0.680792 62.5531 -0.431036 60.9342 1.9757 60.0048C37.3275 46.3939 55.2645 51.5604 73.5648 56.8269C135.709 74.715 140.204 29.5851 211.771 50.1913C226.347 54.3885 240.652 58.5058 269.351 47.4531C271.757 46.5238 275.436 46.6337 277.547 47.693C279.659 48.7523 279.409 50.3712 277.002 51.3006C241.651 64.9115 223.714 59.745 205.413 54.4785C143.292 36.5904 138.797 81.7303 67.2074 61.114C52.6307 56.9168 38.3265 52.7996 9.62731 63.8522ZM9.62731 86.5371C7.22057 87.4665 3.54235 87.3565 1.43078 86.2973C-0.680792 85.238 -0.431036 83.619 1.9757 82.6897C37.3275 69.0787 55.2645 74.2453 73.5648 79.5118C135.709 97.3999 140.204 52.2699 211.771 72.8762C226.347 77.0734 240.652 81.1907 269.351 70.138C271.757 69.2086 275.436 69.3186 277.547 70.3779C279.659 71.4372 279.409 73.0561 277.002 73.9855C241.651 87.5964 223.714 82.4298 205.413 77.1633C143.292 59.2753 138.797 104.415 67.2074 83.7989C52.6307 79.6017 38.3265 75.4845 9.62731 86.5371Z" fill="white"/>
<path d="M528.378 83.8273C530.784 82.8979 534.463 83.0078 536.574 84.0671C538.686 85.1264 538.436 86.7454 536.029 87.6747C500.677 101.286 482.74 96.1191 464.44 90.8526C402.296 72.9645 397.801 118.094 326.212 97.4882C311.635 93.291 297.331 89.1737 268.632 100.226C266.225 101.156 262.547 101.046 260.435 99.9865C258.323 98.9272 258.573 97.3083 260.98 96.3789C296.332 82.768 314.269 87.9346 332.569 93.2011C394.713 111.089 399.208 65.9592 470.775 86.5655C485.374 90.7627 499.678 94.8799 528.378 83.8273ZM268.632 32.1717C266.225 33.1011 262.547 32.9912 260.435 31.9319C258.323 30.8726 258.573 29.2537 260.98 28.3243C296.332 14.7134 314.269 19.8799 332.569 25.1464C394.713 43.0345 399.208 -2.09542 470.775 18.5108C485.352 22.708 499.656 26.8253 528.355 15.7727C530.762 14.8433 534.44 14.9532 536.551 16.0125C538.663 17.0718 538.413 18.6907 536.007 19.6201C500.655 33.231 482.718 28.0645 464.417 22.798C402.296 4.90991 397.801 50.0498 326.212 29.4336C311.635 25.2364 297.331 21.1191 268.632 32.1717ZM268.632 54.8566C266.225 55.786 262.547 55.6761 260.435 54.6168C258.323 53.5575 258.573 51.9386 260.98 51.0092C296.332 37.3983 314.269 42.5648 332.569 47.8313C394.713 65.7194 399.208 20.5895 470.775 41.1957C485.352 45.3929 499.656 49.5102 528.355 38.4575C530.762 37.5282 534.44 37.6381 536.551 38.6974C538.663 39.7567 538.413 41.3756 536.007 42.305C500.655 55.9159 482.718 50.7494 464.417 45.4829C402.296 27.5948 397.801 72.7347 326.212 52.1184C311.635 47.9212 297.331 43.804 268.632 54.8566ZM268.632 77.5415C266.225 78.4709 262.547 78.3609 260.435 77.3016C258.323 76.2424 258.573 74.6234 260.98 73.6941C296.332 60.0831 314.269 65.2497 332.569 70.5162C394.713 88.4042 399.208 43.2743 470.775 63.8806C485.352 68.0778 499.656 72.1951 528.355 61.1424C530.762 60.213 534.44 60.323 536.551 61.3823C538.663 62.4416 538.413 64.0605 536.007 64.9899C500.655 78.6008 482.718 73.4342 464.417 68.1677C402.296 50.2797 397.801 95.4196 326.212 74.8033C311.635 70.6061 297.331 66.4889 268.632 77.5415Z" fill="white"/>
<path d="M784.378 97.8273C786.784 96.8979 790.463 97.0078 792.574 98.0671C794.686 99.1264 794.436 100.745 792.029 101.675C756.677 115.286 738.74 110.119 720.44 104.853C658.296 86.9645 653.801 132.094 582.212 111.488C567.635 107.291 553.331 103.174 524.632 114.226C522.225 115.156 518.547 115.046 516.435 113.987C514.323 112.927 514.573 111.308 516.98 110.379C552.332 96.768 570.269 101.935 588.569 107.201C650.713 125.089 655.208 79.9592 726.775 100.565C741.374 104.763 755.678 108.88 784.378 97.8273ZM524.632 46.1717C522.225 47.1011 518.547 46.9912 516.435 45.9319C514.323 44.8726 514.573 43.2537 516.98 42.3243C552.332 28.7134 570.269 33.8799 588.569 39.1464C650.713 57.0345 655.208 11.9046 726.775 32.5108C741.352 36.708 755.656 40.8253 784.355 29.7727C786.762 28.8433 790.44 28.9532 792.551 30.0125C794.663 31.0718 794.413 32.6907 792.007 33.6201C756.655 47.231 738.718 42.0645 720.417 36.798C658.296 18.9099 653.801 64.0498 582.212 43.4336C567.635 39.2364 553.331 35.1191 524.632 46.1717ZM524.632 68.8566C522.225 69.786 518.547 69.6761 516.435 68.6168C514.323 67.5575 514.573 65.9386 516.98 65.0092C552.332 51.3983 570.269 56.5648 588.569 61.8313C650.713 79.7194 655.208 34.5895 726.775 55.1957C741.352 59.3929 755.656 63.5102 784.355 52.4575C786.762 51.5282 790.44 51.6381 792.551 52.6974C794.663 53.7567 794.413 55.3756 792.007 56.305C756.655 69.9159 738.718 64.7494 720.417 59.4829C658.296 41.5948 653.801 86.7347 582.212 66.1184C567.635 61.9212 553.331 57.804 524.632 68.8566ZM524.632 91.5415C522.225 92.4709 518.547 92.3609 516.435 91.3016C514.323 90.2424 514.573 88.6234 516.98 87.6941C552.332 74.0831 570.269 79.2497 588.569 84.5162C650.713 102.404 655.208 57.2743 726.775 77.8806C741.352 82.0778 755.656 86.1951 784.355 75.1424C786.762 74.213 790.44 74.323 792.551 75.3823C794.663 76.4416 794.413 78.0605 792.007 78.9899C756.655 92.6008 738.718 87.4342 720.417 82.1677C658.296 64.2797 653.801 109.42 582.212 88.8033C567.635 84.6061 553.331 80.4889 524.632 91.5415Z" fill="white"/>
<path d="M1042.38 88.8273C1044.78 87.8979 1048.46 88.0078 1050.57 89.0671C1052.69 90.1264 1052.44 91.7454 1050.03 92.6747C1014.68 106.286 996.74 101.119 978.44 95.8526C916.296 77.9645 911.801 123.094 840.212 102.488C825.635 98.291 811.331 94.1737 782.632 105.226C780.225 106.156 776.547 106.046 774.435 104.987C772.323 103.927 772.573 102.308 774.98 101.379C810.332 87.768 828.269 92.9346 846.569 98.2011C908.713 116.089 913.208 70.9592 984.775 91.5655C999.374 95.7627 1013.68 99.8799 1042.38 88.8273ZM782.632 37.1717C780.225 38.1011 776.547 37.9912 774.435 36.9319C772.323 35.8726 772.573 34.2537 774.98 33.3243C810.332 19.7134 828.269 24.8799 846.569 30.1464C908.713 48.0345 913.208 2.90458 984.775 23.5108C999.352 27.708 1013.66 31.8253 1042.35 20.7727C1044.76 19.8433 1048.44 19.9532 1050.55 21.0125C1052.66 22.0718 1052.41 23.6907 1050.01 24.6201C1014.65 38.231 996.718 33.0645 978.417 27.798C916.296 9.90991 911.801 55.0498 840.212 34.4336C825.635 30.2364 811.331 26.1191 782.632 37.1717ZM782.632 59.8566C780.225 60.786 776.547 60.6761 774.435 59.6168C772.323 58.5575 772.573 56.9386 774.98 56.0092C810.332 42.3983 828.269 47.5648 846.569 52.8313C908.713 70.7194 913.208 25.5895 984.775 46.1957C999.352 50.3929 1013.66 54.5102 1042.35 43.4575C1044.76 42.5282 1048.44 42.6381 1050.55 43.6974C1052.66 44.7567 1052.41 46.3756 1050.01 47.305C1014.65 60.9159 996.718 55.7494 978.417 50.4829C916.296 32.5948 911.801 77.7347 840.212 57.1184C825.635 52.9212 811.331 48.804 782.632 59.8566ZM782.632 82.5415C780.225 83.4709 776.547 83.3609 774.435 82.3016C772.323 81.2424 772.573 79.6234 774.98 78.6941C810.332 65.0831 828.269 70.2497 846.569 75.5162C908.713 93.4042 913.208 48.2743 984.775 68.8806C999.352 73.0778 1013.66 77.1951 1042.35 66.1424C1044.76 65.213 1048.44 65.323 1050.55 66.3823C1052.66 67.4416 1052.41 69.0605 1050.01 69.9899C1014.65 83.6008 996.718 78.4342 978.417 73.1677C916.296 55.2797 911.801 100.42 840.212 79.8033C825.635 75.6061 811.331 71.4889 782.632 82.5415Z" fill="white"/>
<path d="M1299.38 79.8273C1301.78 78.8979 1305.46 79.0078 1307.57 80.0671C1309.69 81.1264 1309.44 82.7454 1307.03 83.6747C1271.68 97.2857 1253.74 92.1191 1235.44 86.8526C1173.3 68.9645 1168.8 114.094 1097.21 93.4882C1082.63 89.291 1068.33 85.1737 1039.63 96.2264C1037.22 97.1557 1033.55 97.0458 1031.43 95.9865C1029.32 94.9272 1029.57 93.3083 1031.98 92.3789C1067.33 78.768 1085.27 83.9346 1103.57 89.2011C1165.71 107.089 1170.21 61.9592 1241.77 82.5655C1256.37 86.7627 1270.68 90.8799 1299.38 79.8273ZM1039.63 28.1717C1037.22 29.1011 1033.55 28.9912 1031.43 27.9319C1029.32 26.8726 1029.57 25.2537 1031.98 24.3243C1067.33 10.7134 1085.27 15.8799 1103.57 21.1464C1165.71 39.0345 1170.21 -6.09542 1241.77 14.5108C1256.35 18.708 1270.66 22.8253 1299.35 11.7727C1301.76 10.8433 1305.44 10.9532 1307.55 12.0125C1309.66 13.0718 1309.41 14.6907 1307.01 15.6201C1271.65 29.231 1253.72 24.0645 1235.42 18.798C1173.3 0.909908 1168.8 46.0498 1097.21 25.4336C1082.63 21.2364 1068.33 17.1191 1039.63 28.1717ZM1039.63 50.8566C1037.22 51.786 1033.55 51.6761 1031.43 50.6168C1029.32 49.5575 1029.57 47.9386 1031.98 47.0092C1067.33 33.3983 1085.27 38.5648 1103.57 43.8313C1165.71 61.7194 1170.21 16.5895 1241.77 37.1957C1256.35 41.3929 1270.66 45.5102 1299.35 34.4575C1301.76 33.5282 1305.44 33.6381 1307.55 34.6974C1309.66 35.7567 1309.41 37.3756 1307.01 38.305C1271.65 51.9159 1253.72 46.7494 1235.42 41.4829C1173.3 23.5948 1168.8 68.7347 1097.21 48.1184C1082.63 43.9212 1068.33 39.804 1039.63 50.8566ZM1039.63 73.5415C1037.22 74.4709 1033.55 74.3609 1031.43 73.3016C1029.32 72.2424 1029.57 70.6234 1031.98 69.6941C1067.33 56.0831 1085.27 61.2497 1103.57 66.5162C1165.71 84.4042 1170.21 39.2743 1241.77 59.8806C1256.35 64.0778 1270.66 68.1951 1299.35 57.1424C1301.76 56.213 1305.44 56.323 1307.55 57.3823C1309.66 58.4416 1309.41 60.0605 1307.01 60.9899C1271.65 74.6008 1253.72 69.4342 1235.42 64.1677C1173.3 46.2797 1168.8 91.4196 1097.21 70.8033C1082.63 66.6061 1068.33 62.4889 1039.63 73.5415Z" fill="white"/>
<path d="M1556.38 70.8273C1558.78 69.8979 1562.46 70.0078 1564.57 71.0671C1566.69 72.1264 1566.44 73.7454 1564.03 74.6747C1528.68 88.2857 1510.74 83.1191 1492.44 77.8526C1430.3 59.9645 1425.8 105.094 1354.21 84.4882C1339.63 80.291 1325.33 76.1737 1296.63 87.2264C1294.22 88.1557 1290.55 88.0458 1288.43 86.9865C1286.32 85.9272 1286.57 84.3083 1288.98 83.3789C1324.33 69.768 1342.27 74.9346 1360.57 80.2011C1422.71 98.0891 1427.21 52.9592 1498.77 73.5655C1513.37 77.7627 1527.68 81.8799 1556.38 70.8273ZM1296.63 19.1717C1294.22 20.1011 1290.55 19.9912 1288.43 18.9319C1286.32 17.8726 1286.57 16.2537 1288.98 15.3243C1324.33 1.71337 1342.27 6.87993 1360.57 12.1464C1422.71 30.0345 1427.21 -15.0954 1498.77 5.51084C1513.35 9.70804 1527.66 13.8253 1556.35 2.77267C1558.76 1.84329 1562.44 1.95321 1564.55 3.01251C1566.66 4.0718 1566.41 5.69072 1564.01 6.6201C1528.65 20.231 1510.72 15.0645 1492.42 9.79798C1430.3 -8.09009 1425.8 37.0498 1354.21 16.4336C1339.63 12.2364 1325.33 8.1191 1296.63 19.1717ZM1296.63 41.8566C1294.22 42.786 1290.55 42.6761 1288.43 41.6168C1286.32 40.5575 1286.57 38.9386 1288.98 38.0092C1324.33 24.3983 1342.27 29.5648 1360.57 34.8313C1422.71 52.7194 1427.21 7.58945 1498.77 28.1957C1513.35 32.3929 1527.66 36.5102 1556.35 25.4575C1558.76 24.5282 1562.44 24.6381 1564.55 25.6974C1566.66 26.7567 1566.41 28.3756 1564.01 29.305C1528.65 42.9159 1510.72 37.7494 1492.42 32.4829C1430.3 14.5948 1425.8 59.7347 1354.21 39.1184C1339.63 34.9212 1325.33 30.804 1296.63 41.8566ZM1296.63 64.5415C1294.22 65.4709 1290.55 65.3609 1288.43 64.3016C1286.32 63.2424 1286.57 61.6234 1288.98 60.6941C1324.33 47.0831 1342.27 52.2497 1360.57 57.5162C1422.71 75.4042 1427.21 30.2743 1498.77 50.8806C1513.35 55.0778 1527.66 59.1951 1556.35 48.1424C1558.76 47.213 1562.44 47.323 1564.55 48.3823C1566.66 49.4416 1566.41 51.0605 1564.01 51.9899C1528.65 65.6008 1510.72 60.4342 1492.42 55.1677C1430.3 37.2797 1425.8 82.4196 1354.21 61.8033C1339.63 57.6061 1325.33 53.4889 1296.63 64.5415Z" fill="white"/>
<path d="M528.378 173.827C530.784 172.898 534.463 173.008 536.574 174.067C538.686 175.126 538.436 176.745 536.029 177.675C500.677 191.286 482.74 186.119 464.44 180.853C402.296 162.965 397.801 208.094 326.212 187.488C311.635 183.291 297.331 179.174 268.632 190.226C266.225 191.156 262.547 191.046 260.435 189.987C258.323 188.927 258.573 187.308 260.98 186.379C296.332 172.768 314.269 177.935 332.569 183.201C394.713 201.089 399.208 155.959 470.775 176.565C485.374 180.763 499.678 184.88 528.378 173.827ZM268.632 122.172C266.225 123.101 262.547 122.991 260.435 121.932C258.323 120.873 258.573 119.254 260.98 118.324C296.332 104.713 314.269 109.88 332.569 115.146C394.713 133.034 399.208 87.9046 470.775 108.511C485.352 112.708 499.656 116.825 528.355 105.773C530.762 104.843 534.44 104.953 536.551 106.013C538.663 107.072 538.413 108.691 536.007 109.62C500.655 123.231 482.718 118.064 464.417 112.798C402.296 94.9099 397.801 140.05 326.212 119.434C311.635 115.236 297.331 111.119 268.632 122.172ZM268.632 144.857C266.225 145.786 262.547 145.676 260.435 144.617C258.323 143.557 258.573 141.939 260.98 141.009C296.332 127.398 314.269 132.565 332.569 137.831C394.713 155.719 399.208 110.589 470.775 131.196C485.352 135.393 499.656 139.51 528.355 128.458C530.762 127.528 534.44 127.638 536.551 128.697C538.663 129.757 538.413 131.376 536.007 132.305C500.655 145.916 482.718 140.749 464.417 135.483C402.296 117.595 397.801 162.735 326.212 142.118C311.635 137.921 297.331 133.804 268.632 144.857ZM268.632 167.541C266.225 168.471 262.547 168.361 260.435 167.302C258.323 166.242 258.573 164.623 260.98 163.694C296.332 150.083 314.269 155.25 332.569 160.516C394.713 178.404 399.208 133.274 470.775 153.881C485.352 158.078 499.656 162.195 528.355 151.142C530.762 150.213 534.44 150.323 536.551 151.382C538.663 152.442 538.413 154.06 536.007 154.99C500.655 168.601 482.718 163.434 464.417 158.168C402.296 140.28 397.801 185.42 326.212 164.803C311.635 160.606 297.331 156.489 268.632 167.541Z" fill="white"/>
<path d="M784.378 187.827C786.784 186.898 790.463 187.008 792.574 188.067C794.686 189.126 794.436 190.745 792.029 191.675C756.677 205.286 738.74 200.119 720.44 194.853C658.296 176.965 653.801 222.094 582.212 201.488C567.635 197.291 553.331 193.174 524.632 204.226C522.225 205.156 518.547 205.046 516.435 203.987C514.323 202.927 514.573 201.308 516.98 200.379C552.332 186.768 570.269 191.935 588.569 197.201C650.713 215.089 655.208 169.959 726.775 190.565C741.374 194.763 755.678 198.88 784.378 187.827ZM524.632 136.172C522.225 137.101 518.547 136.991 516.435 135.932C514.323 134.873 514.573 133.254 516.98 132.324C552.332 118.713 570.269 123.88 588.569 129.146C650.713 147.034 655.208 101.905 726.775 122.511C741.352 126.708 755.656 130.825 784.355 119.773C786.762 118.843 790.44 118.953 792.551 120.013C794.663 121.072 794.413 122.691 792.007 123.62C756.655 137.231 738.718 132.064 720.417 126.798C658.296 108.91 653.801 154.05 582.212 133.434C567.635 129.236 553.331 125.119 524.632 136.172ZM524.632 158.857C522.225 159.786 518.547 159.676 516.435 158.617C514.323 157.557 514.573 155.939 516.98 155.009C552.332 141.398 570.269 146.565 588.569 151.831C650.713 169.719 655.208 124.589 726.775 145.196C741.352 149.393 755.656 153.51 784.355 142.458C786.762 141.528 790.44 141.638 792.551 142.697C794.663 143.757 794.413 145.376 792.007 146.305C756.655 159.916 738.718 154.749 720.417 149.483C658.296 131.595 653.801 176.735 582.212 156.118C567.635 151.921 553.331 147.804 524.632 158.857ZM524.632 181.541C522.225 182.471 518.547 182.361 516.435 181.302C514.323 180.242 514.573 178.623 516.98 177.694C552.332 164.083 570.269 169.25 588.569 174.516C650.713 192.404 655.208 147.274 726.775 167.881C741.352 172.078 755.656 176.195 784.355 165.142C786.762 164.213 790.44 164.323 792.551 165.382C794.663 166.442 794.413 168.06 792.007 168.99C756.655 182.601 738.718 177.434 720.417 172.168C658.296 154.28 653.801 199.42 582.212 178.803C567.635 174.606 553.331 170.489 524.632 181.541Z" fill="white"/>
<path d="M1042.38 178.827C1044.78 177.898 1048.46 178.008 1050.57 179.067C1052.69 180.126 1052.44 181.745 1050.03 182.675C1014.68 196.286 996.74 191.119 978.44 185.853C916.296 167.965 911.801 213.094 840.212 192.488C825.635 188.291 811.331 184.174 782.632 195.226C780.225 196.156 776.547 196.046 774.435 194.987C772.323 193.927 772.573 192.308 774.98 191.379C810.332 177.768 828.269 182.935 846.569 188.201C908.713 206.089 913.208 160.959 984.775 181.565C999.374 185.763 1013.68 189.88 1042.38 178.827ZM782.632 127.172C780.225 128.101 776.547 127.991 774.435 126.932C772.323 125.873 772.573 124.254 774.98 123.324C810.332 109.713 828.269 114.88 846.569 120.146C908.713 138.034 913.208 92.9046 984.775 113.511C999.352 117.708 1013.66 121.825 1042.35 110.773C1044.76 109.843 1048.44 109.953 1050.55 111.013C1052.66 112.072 1052.41 113.691 1050.01 114.62C1014.65 128.231 996.718 123.064 978.417 117.798C916.296 99.9099 911.801 145.05 840.212 124.434C825.635 120.236 811.331 116.119 782.632 127.172ZM782.632 149.857C780.225 150.786 776.547 150.676 774.435 149.617C772.323 148.557 772.573 146.939 774.98 146.009C810.332 132.398 828.269 137.565 846.569 142.831C908.713 160.719 913.208 115.589 984.775 136.196C999.352 140.393 1013.66 144.51 1042.35 133.458C1044.76 132.528 1048.44 132.638 1050.55 133.697C1052.66 134.757 1052.41 136.376 1050.01 137.305C1014.65 150.916 996.718 145.749 978.417 140.483C916.296 122.595 911.801 167.735 840.212 147.118C825.635 142.921 811.331 138.804 782.632 149.857ZM782.632 172.541C780.225 173.471 776.547 173.361 774.435 172.302C772.323 171.242 772.573 169.623 774.98 168.694C810.332 155.083 828.269 160.25 846.569 165.516C908.713 183.404 913.208 138.274 984.775 158.881C999.352 163.078 1013.66 167.195 1042.35 156.142C1044.76 155.213 1048.44 155.323 1050.55 156.382C1052.66 157.442 1052.41 159.06 1050.01 159.99C1014.65 173.601 996.718 168.434 978.417 163.168C916.296 145.28 911.801 190.42 840.212 169.803C825.635 165.606 811.331 161.489 782.632 172.541Z" fill="white"/>
<path d="M1299.38 169.827C1301.78 168.898 1305.46 169.008 1307.57 170.067C1309.69 171.126 1309.44 172.745 1307.03 173.675C1271.68 187.286 1253.74 182.119 1235.44 176.853C1173.3 158.965 1168.8 204.094 1097.21 183.488C1082.63 179.291 1068.33 175.174 1039.63 186.226C1037.22 187.156 1033.55 187.046 1031.43 185.987C1029.32 184.927 1029.57 183.308 1031.98 182.379C1067.33 168.768 1085.27 173.935 1103.57 179.201C1165.71 197.089 1170.21 151.959 1241.77 172.565C1256.37 176.763 1270.68 180.88 1299.38 169.827ZM1039.63 118.172C1037.22 119.101 1033.55 118.991 1031.43 117.932C1029.32 116.873 1029.57 115.254 1031.98 114.324C1067.33 100.713 1085.27 105.88 1103.57 111.146C1165.71 129.034 1170.21 83.9046 1241.77 104.511C1256.35 108.708 1270.66 112.825 1299.35 101.773C1301.76 100.843 1305.44 100.953 1307.55 102.013C1309.66 103.072 1309.41 104.691 1307.01 105.62C1271.65 119.231 1253.72 114.064 1235.42 108.798C1173.3 90.9099 1168.8 136.05 1097.21 115.434C1082.63 111.236 1068.33 107.119 1039.63 118.172ZM1039.63 140.857C1037.22 141.786 1033.55 141.676 1031.43 140.617C1029.32 139.557 1029.57 137.939 1031.98 137.009C1067.33 123.398 1085.27 128.565 1103.57 133.831C1165.71 151.719 1170.21 106.589 1241.77 127.196C1256.35 131.393 1270.66 135.51 1299.35 124.458C1301.76 123.528 1305.44 123.638 1307.55 124.697C1309.66 125.757 1309.41 127.376 1307.01 128.305C1271.65 141.916 1253.72 136.749 1235.42 131.483C1173.3 113.595 1168.8 158.735 1097.21 138.118C1082.63 133.921 1068.33 129.804 1039.63 140.857ZM1039.63 163.541C1037.22 164.471 1033.55 164.361 1031.43 163.302C1029.32 162.242 1029.57 160.623 1031.98 159.694C1067.33 146.083 1085.27 151.25 1103.57 156.516C1165.71 174.404 1170.21 129.274 1241.77 149.881C1256.35 154.078 1270.66 158.195 1299.35 147.142C1301.76 146.213 1305.44 146.323 1307.55 147.382C1309.66 148.442 1309.41 150.06 1307.01 150.99C1271.65 164.601 1253.72 159.434 1235.42 154.168C1173.3 136.28 1168.8 181.42 1097.21 160.803C1082.63 156.606 1068.33 152.489 1039.63 163.541Z" fill="white"/>
<path d="M1556.38 160.827C1558.78 159.898 1562.46 160.008 1564.57 161.067C1566.69 162.126 1566.44 163.745 1564.03 164.675C1528.68 178.286 1510.74 173.119 1492.44 167.853C1430.3 149.965 1425.8 195.094 1354.21 174.488C1339.63 170.291 1325.33 166.174 1296.63 177.226C1294.22 178.156 1290.55 178.046 1288.43 176.987C1286.32 175.927 1286.57 174.308 1288.98 173.379C1324.33 159.768 1342.27 164.935 1360.57 170.201C1422.71 188.089 1427.21 142.959 1498.77 163.565C1513.37 167.763 1527.68 171.88 1556.38 160.827ZM1296.63 109.172C1294.22 110.101 1290.55 109.991 1288.43 108.932C1286.32 107.873 1286.57 106.254 1288.98 105.324C1324.33 91.7134 1342.27 96.8799 1360.57 102.146C1422.71 120.034 1427.21 74.9046 1498.77 95.5108C1513.35 99.708 1527.66 103.825 1556.35 92.7727C1558.76 91.8433 1562.44 91.9532 1564.55 93.0125C1566.66 94.0718 1566.41 95.6907 1564.01 96.6201C1528.65 110.231 1510.72 105.064 1492.42 99.798C1430.3 81.9099 1425.8 127.05 1354.21 106.434C1339.63 102.236 1325.33 98.1191 1296.63 109.172ZM1296.63 131.857C1294.22 132.786 1290.55 132.676 1288.43 131.617C1286.32 130.557 1286.57 128.939 1288.98 128.009C1324.33 114.398 1342.27 119.565 1360.57 124.831C1422.71 142.719 1427.21 97.5895 1498.77 118.196C1513.35 122.393 1527.66 126.51 1556.35 115.458C1558.76 114.528 1562.44 114.638 1564.55 115.697C1566.66 116.757 1566.41 118.376 1564.01 119.305C1528.65 132.916 1510.72 127.749 1492.42 122.483C1430.3 104.595 1425.8 149.735 1354.21 129.118C1339.63 124.921 1325.33 120.804 1296.63 131.857ZM1296.63 154.541C1294.22 155.471 1290.55 155.361 1288.43 154.302C1286.32 153.242 1286.57 151.623 1288.98 150.694C1324.33 137.083 1342.27 142.25 1360.57 147.516C1422.71 165.404 1427.21 120.274 1498.77 140.881C1513.35 145.078 1527.66 149.195 1556.35 138.142C1558.76 137.213 1562.44 137.323 1564.55 138.382C1566.66 139.442 1566.41 141.06 1564.01 141.99C1528.65 155.601 1510.72 150.434 1492.42 145.168C1430.3 127.28 1425.8 172.42 1354.21 151.803C1339.63 147.606 1325.33 143.489 1296.63 154.541Z" fill="white"/>
<path d="M528.378 263.827C530.784 262.898 534.463 263.008 536.574 264.067C538.686 265.126 538.436 266.745 536.029 267.675C500.677 281.286 482.74 276.119 464.44 270.853C402.296 252.965 397.801 298.094 326.212 277.488C311.635 273.291 297.331 269.174 268.632 280.226C266.225 281.156 262.547 281.046 260.435 279.987C258.323 278.927 258.573 277.308 260.98 276.379C296.332 262.768 314.269 267.935 332.569 273.201C394.713 291.089 399.208 245.959 470.775 266.565C485.374 270.763 499.678 274.88 528.378 263.827ZM268.632 212.172C266.225 213.101 262.547 212.991 260.435 211.932C258.323 210.873 258.573 209.254 260.98 208.324C296.332 194.713 314.269 199.88 332.569 205.146C394.713 223.034 399.208 177.905 470.775 198.511C485.352 202.708 499.656 206.825 528.355 195.773C530.762 194.843 534.44 194.953 536.551 196.013C538.663 197.072 538.413 198.691 536.007 199.62C500.655 213.231 482.718 208.064 464.417 202.798C402.296 184.91 397.801 230.05 326.212 209.434C311.635 205.236 297.331 201.119 268.632 212.172ZM268.632 234.857C266.225 235.786 262.547 235.676 260.435 234.617C258.323 233.557 258.573 231.939 260.98 231.009C296.332 217.398 314.269 222.565 332.569 227.831C394.713 245.719 399.208 200.589 470.775 221.196C485.352 225.393 499.656 229.51 528.355 218.458C530.762 217.528 534.44 217.638 536.551 218.697C538.663 219.757 538.413 221.376 536.007 222.305C500.655 235.916 482.718 230.749 464.417 225.483C402.296 207.595 397.801 252.735 326.212 232.118C311.635 227.921 297.331 223.804 268.632 234.857ZM268.632 257.541C266.225 258.471 262.547 258.361 260.435 257.302C258.323 256.242 258.573 254.623 260.98 253.694C296.332 240.083 314.269 245.25 332.569 250.516C394.713 268.404 399.208 223.274 470.775 243.881C485.352 248.078 499.656 252.195 528.355 241.142C530.762 240.213 534.44 240.323 536.551 241.382C538.663 242.442 538.413 244.06 536.007 244.99C500.655 258.601 482.718 253.434 464.417 248.168C402.296 230.28 397.801 275.42 326.212 254.803C311.635 250.606 297.331 246.489 268.632 257.541Z" fill="white"/>
<path d="M784.378 277.827C786.784 276.898 790.463 277.008 792.574 278.067C794.686 279.126 794.436 280.745 792.029 281.675C756.677 295.286 738.74 290.119 720.44 284.853C658.296 266.965 653.801 312.094 582.212 291.488C567.635 287.291 553.331 283.174 524.632 294.226C522.225 295.156 518.547 295.046 516.435 293.987C514.323 292.927 514.573 291.308 516.98 290.379C552.332 276.768 570.269 281.935 588.569 287.201C650.713 305.089 655.208 259.959 726.775 280.565C741.374 284.763 755.678 288.88 784.378 277.827ZM524.632 226.172C522.225 227.101 518.547 226.991 516.435 225.932C514.323 224.873 514.573 223.254 516.98 222.324C552.332 208.713 570.269 213.88 588.569 219.146C650.713 237.034 655.208 191.905 726.775 212.511C741.352 216.708 755.656 220.825 784.355 209.773C786.762 208.843 790.44 208.953 792.551 210.013C794.663 211.072 794.413 212.691 792.007 213.62C756.655 227.231 738.718 222.064 720.417 216.798C658.296 198.91 653.801 244.05 582.212 223.434C567.635 219.236 553.331 215.119 524.632 226.172ZM524.632 248.857C522.225 249.786 518.547 249.676 516.435 248.617C514.323 247.557 514.573 245.939 516.98 245.009C552.332 231.398 570.269 236.565 588.569 241.831C650.713 259.719 655.208 214.589 726.775 235.196C741.352 239.393 755.656 243.51 784.355 232.458C786.762 231.528 790.44 231.638 792.551 232.697C794.663 233.757 794.413 235.376 792.007 236.305C756.655 249.916 738.718 244.749 720.417 239.483C658.296 221.595 653.801 266.735 582.212 246.118C567.635 241.921 553.331 237.804 524.632 248.857ZM524.632 271.541C522.225 272.471 518.547 272.361 516.435 271.302C514.323 270.242 514.573 268.623 516.98 267.694C552.332 254.083 570.269 259.25 588.569 264.516C650.713 282.404 655.208 237.274 726.775 257.881C741.352 262.078 755.656 266.195 784.355 255.142C786.762 254.213 790.44 254.323 792.551 255.382C794.663 256.442 794.413 258.06 792.007 258.99C756.655 272.601 738.718 267.434 720.417 262.168C658.296 244.28 653.801 289.42 582.212 268.803C567.635 264.606 553.331 260.489 524.632 271.541Z" fill="white"/>
<path d="M1042.38 268.827C1044.78 267.898 1048.46 268.008 1050.57 269.067C1052.69 270.126 1052.44 271.745 1050.03 272.675C1014.68 286.286 996.74 281.119 978.44 275.853C916.296 257.965 911.801 303.094 840.212 282.488C825.635 278.291 811.331 274.174 782.632 285.226C780.225 286.156 776.547 286.046 774.435 284.987C772.323 283.927 772.573 282.308 774.98 281.379C810.332 267.768 828.269 272.935 846.569 278.201C908.713 296.089 913.208 250.959 984.775 271.565C999.374 275.763 1013.68 279.88 1042.38 268.827ZM782.632 217.172C780.225 218.101 776.547 217.991 774.435 216.932C772.323 215.873 772.573 214.254 774.98 213.324C810.332 199.713 828.269 204.88 846.569 210.146C908.713 228.034 913.208 182.905 984.775 203.511C999.352 207.708 1013.66 211.825 1042.35 200.773C1044.76 199.843 1048.44 199.953 1050.55 201.013C1052.66 202.072 1052.41 203.691 1050.01 204.62C1014.65 218.231 996.718 213.064 978.417 207.798C916.296 189.91 911.801 235.05 840.212 214.434C825.635 210.236 811.331 206.119 782.632 217.172ZM782.632 239.857C780.225 240.786 776.547 240.676 774.435 239.617C772.323 238.557 772.573 236.939 774.98 236.009C810.332 222.398 828.269 227.565 846.569 232.831C908.713 250.719 913.208 205.589 984.775 226.196C999.352 230.393 1013.66 234.51 1042.35 223.458C1044.76 222.528 1048.44 222.638 1050.55 223.697C1052.66 224.757 1052.41 226.376 1050.01 227.305C1014.65 240.916 996.718 235.749 978.417 230.483C916.296 212.595 911.801 257.735 840.212 237.118C825.635 232.921 811.331 228.804 782.632 239.857ZM782.632 262.541C780.225 263.471 776.547 263.361 774.435 262.302C772.323 261.242 772.573 259.623 774.98 258.694C810.332 245.083 828.269 250.25 846.569 255.516C908.713 273.404 913.208 228.274 984.775 248.881C999.352 253.078 1013.66 257.195 1042.35 246.142C1044.76 245.213 1048.44 245.323 1050.55 246.382C1052.66 247.442 1052.41 249.06 1050.01 249.99C1014.65 263.601 996.718 258.434 978.417 253.168C916.296 235.28 911.801 280.42 840.212 259.803C825.635 255.606 811.331 251.489 782.632 262.541Z" fill="white"/>
<path d="M1299.38 259.827C1301.78 258.898 1305.46 259.008 1307.57 260.067C1309.69 261.126 1309.44 262.745 1307.03 263.675C1271.68 277.286 1253.74 272.119 1235.44 266.853C1173.3 248.965 1168.8 294.094 1097.21 273.488C1082.63 269.291 1068.33 265.174 1039.63 276.226C1037.22 277.156 1033.55 277.046 1031.43 275.987C1029.32 274.927 1029.57 273.308 1031.98 272.379C1067.33 258.768 1085.27 263.935 1103.57 269.201C1165.71 287.089 1170.21 241.959 1241.77 262.565C1256.37 266.763 1270.68 270.88 1299.38 259.827ZM1039.63 208.172C1037.22 209.101 1033.55 208.991 1031.43 207.932C1029.32 206.873 1029.57 205.254 1031.98 204.324C1067.33 190.713 1085.27 195.88 1103.57 201.146C1165.71 219.034 1170.21 173.905 1241.77 194.511C1256.35 198.708 1270.66 202.825 1299.35 191.773C1301.76 190.843 1305.44 190.953 1307.55 192.013C1309.66 193.072 1309.41 194.691 1307.01 195.62C1271.65 209.231 1253.72 204.064 1235.42 198.798C1173.3 180.91 1168.8 226.05 1097.21 205.434C1082.63 201.236 1068.33 197.119 1039.63 208.172ZM1039.63 230.857C1037.22 231.786 1033.55 231.676 1031.43 230.617C1029.32 229.557 1029.57 227.939 1031.98 227.009C1067.33 213.398 1085.27 218.565 1103.57 223.831C1165.71 241.719 1170.21 196.589 1241.77 217.196C1256.35 221.393 1270.66 225.51 1299.35 214.458C1301.76 213.528 1305.44 213.638 1307.55 214.697C1309.66 215.757 1309.41 217.376 1307.01 218.305C1271.65 231.916 1253.72 226.749 1235.42 221.483C1173.3 203.595 1168.8 248.735 1097.21 228.118C1082.63 223.921 1068.33 219.804 1039.63 230.857ZM1039.63 253.541C1037.22 254.471 1033.55 254.361 1031.43 253.302C1029.32 252.242 1029.57 250.623 1031.98 249.694C1067.33 236.083 1085.27 241.25 1103.57 246.516C1165.71 264.404 1170.21 219.274 1241.77 239.881C1256.35 244.078 1270.66 248.195 1299.35 237.142C1301.76 236.213 1305.44 236.323 1307.55 237.382C1309.66 238.442 1309.41 240.06 1307.01 240.99C1271.65 254.601 1253.72 249.434 1235.42 244.168C1173.3 226.28 1168.8 271.42 1097.21 250.803C1082.63 246.606 1068.33 242.489 1039.63 253.541Z" fill="white"/>
<path d="M1556.38 250.827C1558.78 249.898 1562.46 250.008 1564.57 251.067C1566.69 252.126 1566.44 253.745 1564.03 254.675C1528.68 268.286 1510.74 263.119 1492.44 257.853C1430.3 239.965 1425.8 285.094 1354.21 264.488C1339.63 260.291 1325.33 256.174 1296.63 267.226C1294.22 268.156 1290.55 268.046 1288.43 266.987C1286.32 265.927 1286.57 264.308 1288.98 263.379C1324.33 249.768 1342.27 254.935 1360.57 260.201C1422.71 278.089 1427.21 232.959 1498.77 253.565C1513.37 257.763 1527.68 261.88 1556.38 250.827ZM1296.63 199.172C1294.22 200.101 1290.55 199.991 1288.43 198.932C1286.32 197.873 1286.57 196.254 1288.98 195.324C1324.33 181.713 1342.27 186.88 1360.57 192.146C1422.71 210.034 1427.21 164.905 1498.77 185.511C1513.35 189.708 1527.66 193.825 1556.35 182.773C1558.76 181.843 1562.44 181.953 1564.55 183.013C1566.66 184.072 1566.41 185.691 1564.01 186.62C1528.65 200.231 1510.72 195.064 1492.42 189.798C1430.3 171.91 1425.8 217.05 1354.21 196.434C1339.63 192.236 1325.33 188.119 1296.63 199.172ZM1296.63 221.857C1294.22 222.786 1290.55 222.676 1288.43 221.617C1286.32 220.557 1286.57 218.939 1288.98 218.009C1324.33 204.398 1342.27 209.565 1360.57 214.831C1422.71 232.719 1427.21 187.589 1498.77 208.196C1513.35 212.393 1527.66 216.51 1556.35 205.458C1558.76 204.528 1562.44 204.638 1564.55 205.697C1566.66 206.757 1566.41 208.376 1564.01 209.305C1528.65 222.916 1510.72 217.749 1492.42 212.483C1430.3 194.595 1425.8 239.735 1354.21 219.118C1339.63 214.921 1325.33 210.804 1296.63 221.857ZM1296.63 244.541C1294.22 245.471 1290.55 245.361 1288.43 244.302C1286.32 243.242 1286.57 241.623 1288.98 240.694C1324.33 227.083 1342.27 232.25 1360.57 237.516C1422.71 255.404 1427.21 210.274 1498.77 230.881C1513.35 235.078 1527.66 239.195 1556.35 228.142C1558.76 227.213 1562.44 227.323 1564.55 228.382C1566.66 229.442 1566.41 231.06 1564.01 231.99C1528.65 245.601 1510.72 240.434 1492.42 235.168C1430.3 217.28 1425.8 262.42 1354.21 241.803C1339.63 237.606 1325.33 233.489 1296.63 244.541Z" fill="white"/>
<path d="M528.378 353.827C530.784 352.898 534.463 353.008 536.574 354.067C538.686 355.126 538.436 356.745 536.029 357.675C500.677 371.286 482.74 366.119 464.44 360.853C402.296 342.965 397.801 388.094 326.212 367.488C311.635 363.291 297.331 359.174 268.632 370.226C266.225 371.156 262.547 371.046 260.435 369.987C258.323 368.927 258.573 367.308 260.98 366.379C296.332 352.768 314.269 357.935 332.569 363.201C394.713 381.089 399.208 335.959 470.775 356.565C485.374 360.763 499.678 364.88 528.378 353.827ZM268.632 302.172C266.225 303.101 262.547 302.991 260.435 301.932C258.323 300.873 258.573 299.254 260.98 298.324C296.332 284.713 314.269 289.88 332.569 295.146C394.713 313.034 399.208 267.905 470.775 288.511C485.352 292.708 499.656 296.825 528.355 285.773C530.762 284.843 534.44 284.953 536.551 286.013C538.663 287.072 538.413 288.691 536.007 289.62C500.655 303.231 482.718 298.064 464.417 292.798C402.296 274.91 397.801 320.05 326.212 299.434C311.635 295.236 297.331 291.119 268.632 302.172ZM268.632 324.857C266.225 325.786 262.547 325.676 260.435 324.617C258.323 323.557 258.573 321.939 260.98 321.009C296.332 307.398 314.269 312.565 332.569 317.831C394.713 335.719 399.208 290.589 470.775 311.196C485.352 315.393 499.656 319.51 528.355 308.458C530.762 307.528 534.44 307.638 536.551 308.697C538.663 309.757 538.413 311.376 536.007 312.305C500.655 325.916 482.718 320.749 464.417 315.483C402.296 297.595 397.801 342.735 326.212 322.118C311.635 317.921 297.331 313.804 268.632 324.857ZM268.632 347.541C266.225 348.471 262.547 348.361 260.435 347.302C258.323 346.242 258.573 344.623 260.98 343.694C296.332 330.083 314.269 335.25 332.569 340.516C394.713 358.404 399.208 313.274 470.775 333.881C485.352 338.078 499.656 342.195 528.355 331.142C530.762 330.213 534.44 330.323 536.551 331.382C538.663 332.442 538.413 334.06 536.007 334.99C500.655 348.601 482.718 343.434 464.417 338.168C402.296 320.28 397.801 365.42 326.212 344.803C311.635 340.606 297.331 336.489 268.632 347.541Z" fill="white"/>
<path d="M784.378 367.827C786.784 366.898 790.463 367.008 792.574 368.067C794.686 369.126 794.436 370.745 792.029 371.675C756.677 385.286 738.74 380.119 720.44 374.853C658.296 356.965 653.801 402.094 582.212 381.488C567.635 377.291 553.331 373.174 524.632 384.226C522.225 385.156 518.547 385.046 516.435 383.987C514.323 382.927 514.573 381.308 516.98 380.379C552.332 366.768 570.269 371.935 588.569 377.201C650.713 395.089 655.208 349.959 726.775 370.565C741.374 374.763 755.678 378.88 784.378 367.827ZM524.632 316.172C522.225 317.101 518.547 316.991 516.435 315.932C514.323 314.873 514.573 313.254 516.98 312.324C552.332 298.713 570.269 303.88 588.569 309.146C650.713 327.034 655.208 281.905 726.775 302.511C741.352 306.708 755.656 310.825 784.355 299.773C786.762 298.843 790.44 298.953 792.551 300.013C794.663 301.072 794.413 302.691 792.007 303.62C756.655 317.231 738.718 312.064 720.417 306.798C658.296 288.91 653.801 334.05 582.212 313.434C567.635 309.236 553.331 305.119 524.632 316.172ZM524.632 338.857C522.225 339.786 518.547 339.676 516.435 338.617C514.323 337.557 514.573 335.939 516.98 335.009C552.332 321.398 570.269 326.565 588.569 331.831C650.713 349.719 655.208 304.589 726.775 325.196C741.352 329.393 755.656 333.51 784.355 322.458C786.762 321.528 790.44 321.638 792.551 322.697C794.663 323.757 794.413 325.376 792.007 326.305C756.655 339.916 738.718 334.749 720.417 329.483C658.296 311.595 653.801 356.735 582.212 336.118C567.635 331.921 553.331 327.804 524.632 338.857ZM524.632 361.541C522.225 362.471 518.547 362.361 516.435 361.302C514.323 360.242 514.573 358.623 516.98 357.694C552.332 344.083 570.269 349.25 588.569 354.516C650.713 372.404 655.208 327.274 726.775 347.881C741.352 352.078 755.656 356.195 784.355 345.142C786.762 344.213 790.44 344.323 792.551 345.382C794.663 346.442 794.413 348.06 792.007 348.99C756.655 362.601 738.718 357.434 720.417 352.168C658.296 334.28 653.801 379.42 582.212 358.803C567.635 354.606 553.331 350.489 524.632 361.541Z" fill="white"/>
<path d="M1042.38 358.827C1044.78 357.898 1048.46 358.008 1050.57 359.067C1052.69 360.126 1052.44 361.745 1050.03 362.675C1014.68 376.286 996.74 371.119 978.44 365.853C916.296 347.965 911.801 393.094 840.212 372.488C825.635 368.291 811.331 364.174 782.632 375.226C780.225 376.156 776.547 376.046 774.435 374.987C772.323 373.927 772.573 372.308 774.98 371.379C810.332 357.768 828.269 362.935 846.569 368.201C908.713 386.089 913.208 340.959 984.775 361.565C999.374 365.763 1013.68 369.88 1042.38 358.827ZM782.632 307.172C780.225 308.101 776.547 307.991 774.435 306.932C772.323 305.873 772.573 304.254 774.98 303.324C810.332 289.713 828.269 294.88 846.569 300.146C908.713 318.034 913.208 272.905 984.775 293.511C999.352 297.708 1013.66 301.825 1042.35 290.773C1044.76 289.843 1048.44 289.953 1050.55 291.013C1052.66 292.072 1052.41 293.691 1050.01 294.62C1014.65 308.231 996.718 303.064 978.417 297.798C916.296 279.91 911.801 325.05 840.212 304.434C825.635 300.236 811.331 296.119 782.632 307.172ZM782.632 329.857C780.225 330.786 776.547 330.676 774.435 329.617C772.323 328.557 772.573 326.939 774.98 326.009C810.332 312.398 828.269 317.565 846.569 322.831C908.713 340.719 913.208 295.589 984.775 316.196C999.352 320.393 1013.66 324.51 1042.35 313.458C1044.76 312.528 1048.44 312.638 1050.55 313.697C1052.66 314.757 1052.41 316.376 1050.01 317.305C1014.65 330.916 996.718 325.749 978.417 320.483C916.296 302.595 911.801 347.735 840.212 327.118C825.635 322.921 811.331 318.804 782.632 329.857ZM782.632 352.541C780.225 353.471 776.547 353.361 774.435 352.302C772.323 351.242 772.573 349.623 774.98 348.694C810.332 335.083 828.269 340.25 846.569 345.516C908.713 363.404 913.208 318.274 984.775 338.881C999.352 343.078 1013.66 347.195 1042.35 336.142C1044.76 335.213 1048.44 335.323 1050.55 336.382C1052.66 337.442 1052.41 339.06 1050.01 339.99C1014.65 353.601 996.718 348.434 978.417 343.168C916.296 325.28 911.801 370.42 840.212 349.803C825.635 345.606 811.331 341.489 782.632 352.541Z" fill="white"/>
<path d="M1299.38 349.827C1301.78 348.898 1305.46 349.008 1307.57 350.067C1309.69 351.126 1309.44 352.745 1307.03 353.675C1271.68 367.286 1253.74 362.119 1235.44 356.853C1173.3 338.965 1168.8 384.094 1097.21 363.488C1082.63 359.291 1068.33 355.174 1039.63 366.226C1037.22 367.156 1033.55 367.046 1031.43 365.987C1029.32 364.927 1029.57 363.308 1031.98 362.379C1067.33 348.768 1085.27 353.935 1103.57 359.201C1165.71 377.089 1170.21 331.959 1241.77 352.565C1256.37 356.763 1270.68 360.88 1299.38 349.827ZM1039.63 298.172C1037.22 299.101 1033.55 298.991 1031.43 297.932C1029.32 296.873 1029.57 295.254 1031.98 294.324C1067.33 280.713 1085.27 285.88 1103.57 291.146C1165.71 309.034 1170.21 263.905 1241.77 284.511C1256.35 288.708 1270.66 292.825 1299.35 281.773C1301.76 280.843 1305.44 280.953 1307.55 282.013C1309.66 283.072 1309.41 284.691 1307.01 285.62C1271.65 299.231 1253.72 294.064 1235.42 288.798C1173.3 270.91 1168.8 316.05 1097.21 295.434C1082.63 291.236 1068.33 287.119 1039.63 298.172ZM1039.63 320.857C1037.22 321.786 1033.55 321.676 1031.43 320.617C1029.32 319.557 1029.57 317.939 1031.98 317.009C1067.33 303.398 1085.27 308.565 1103.57 313.831C1165.71 331.719 1170.21 286.589 1241.77 307.196C1256.35 311.393 1270.66 315.51 1299.35 304.458C1301.76 303.528 1305.44 303.638 1307.55 304.697C1309.66 305.757 1309.41 307.376 1307.01 308.305C1271.65 321.916 1253.72 316.749 1235.42 311.483C1173.3 293.595 1168.8 338.735 1097.21 318.118C1082.63 313.921 1068.33 309.804 1039.63 320.857ZM1039.63 343.541C1037.22 344.471 1033.55 344.361 1031.43 343.302C1029.32 342.242 1029.57 340.623 1031.98 339.694C1067.33 326.083 1085.27 331.25 1103.57 336.516C1165.71 354.404 1170.21 309.274 1241.77 329.881C1256.35 334.078 1270.66 338.195 1299.35 327.142C1301.76 326.213 1305.44 326.323 1307.55 327.382C1309.66 328.442 1309.41 330.06 1307.01 330.99C1271.65 344.601 1253.72 339.434 1235.42 334.168C1173.3 316.28 1168.8 361.42 1097.21 340.803C1082.63 336.606 1068.33 332.489 1039.63 343.541Z" fill="white"/>
<path d="M1556.38 340.827C1558.78 339.898 1562.46 340.008 1564.57 341.067C1566.69 342.126 1566.44 343.745 1564.03 344.675C1528.68 358.286 1510.74 353.119 1492.44 347.853C1430.3 329.965 1425.8 375.094 1354.21 354.488C1339.63 350.291 1325.33 346.174 1296.63 357.226C1294.22 358.156 1290.55 358.046 1288.43 356.987C1286.32 355.927 1286.57 354.308 1288.98 353.379C1324.33 339.768 1342.27 344.935 1360.57 350.201C1422.71 368.089 1427.21 322.959 1498.77 343.565C1513.37 347.763 1527.68 351.88 1556.38 340.827ZM1296.63 289.172C1294.22 290.101 1290.55 289.991 1288.43 288.932C1286.32 287.873 1286.57 286.254 1288.98 285.324C1324.33 271.713 1342.27 276.88 1360.57 282.146C1422.71 300.034 1427.21 254.905 1498.77 275.511C1513.35 279.708 1527.66 283.825 1556.35 272.773C1558.76 271.843 1562.44 271.953 1564.55 273.013C1566.66 274.072 1566.41 275.691 1564.01 276.62C1528.65 290.231 1510.72 285.064 1492.42 279.798C1430.3 261.91 1425.8 307.05 1354.21 286.434C1339.63 282.236 1325.33 278.119 1296.63 289.172ZM1296.63 311.857C1294.22 312.786 1290.55 312.676 1288.43 311.617C1286.32 310.557 1286.57 308.939 1288.98 308.009C1324.33 294.398 1342.27 299.565 1360.57 304.831C1422.71 322.719 1427.21 277.589 1498.77 298.196C1513.35 302.393 1527.66 306.51 1556.35 295.458C1558.76 294.528 1562.44 294.638 1564.55 295.697C1566.66 296.757 1566.41 298.376 1564.01 299.305C1528.65 312.916 1510.72 307.749 1492.42 302.483C1430.3 284.595 1425.8 329.735 1354.21 309.118C1339.63 304.921 1325.33 300.804 1296.63 311.857ZM1296.63 334.541C1294.22 335.471 1290.55 335.361 1288.43 334.302C1286.32 333.242 1286.57 331.623 1288.98 330.694C1324.33 317.083 1342.27 322.25 1360.57 327.516C1422.71 345.404 1427.21 300.274 1498.77 320.881C1513.35 325.078 1527.66 329.195 1556.35 318.142C1558.76 317.213 1562.44 317.323 1564.55 318.382C1566.66 319.442 1566.41 321.06 1564.01 321.99C1528.65 335.601 1510.72 330.434 1492.42 325.168C1430.3 307.28 1425.8 352.42 1354.21 331.803C1339.63 327.606 1325.33 323.489 1296.63 334.541Z" fill="white"/>
<path d="M528.378 443.827C530.784 442.898 534.463 443.008 536.574 444.067C538.686 445.126 538.436 446.745 536.029 447.675C500.677 461.286 482.74 456.119 464.44 450.853C402.296 432.965 397.801 478.094 326.212 457.488C311.635 453.291 297.331 449.174 268.632 460.226C266.225 461.156 262.547 461.046 260.435 459.987C258.323 458.927 258.573 457.308 260.98 456.379C296.332 442.768 314.269 447.935 332.569 453.201C394.713 471.089 399.208 425.959 470.775 446.565C485.374 450.763 499.678 454.88 528.378 443.827ZM268.632 392.172C266.225 393.101 262.547 392.991 260.435 391.932C258.323 390.873 258.573 389.254 260.98 388.324C296.332 374.713 314.269 379.88 332.569 385.146C394.713 403.034 399.208 357.905 470.775 378.511C485.352 382.708 499.656 386.825 528.355 375.773C530.762 374.843 534.44 374.953 536.551 376.013C538.663 377.072 538.413 378.691 536.007 379.62C500.655 393.231 482.718 388.064 464.417 382.798C402.296 364.91 397.801 410.05 326.212 389.434C311.635 385.236 297.331 381.119 268.632 392.172ZM268.632 414.857C266.225 415.786 262.547 415.676 260.435 414.617C258.323 413.557 258.573 411.939 260.98 411.009C296.332 397.398 314.269 402.565 332.569 407.831C394.713 425.719 399.208 380.589 470.775 401.196C485.352 405.393 499.656 409.51 528.355 398.458C530.762 397.528 534.44 397.638 536.551 398.697C538.663 399.757 538.413 401.376 536.007 402.305C500.655 415.916 482.718 410.749 464.417 405.483C402.296 387.595 397.801 432.735 326.212 412.118C311.635 407.921 297.331 403.804 268.632 414.857ZM268.632 437.541C266.225 438.471 262.547 438.361 260.435 437.302C258.323 436.242 258.573 434.623 260.98 433.694C296.332 420.083 314.269 425.25 332.569 430.516C394.713 448.404 399.208 403.274 470.775 423.881C485.352 428.078 499.656 432.195 528.355 421.142C530.762 420.213 534.44 420.323 536.551 421.382C538.663 422.442 538.413 424.06 536.007 424.99C500.655 438.601 482.718 433.434 464.417 428.168C402.296 410.28 397.801 455.42 326.212 434.803C311.635 430.606 297.331 426.489 268.632 437.541Z" fill="white"/>
<path d="M784.378 457.827C786.784 456.898 790.463 457.008 792.574 458.067C794.686 459.126 794.436 460.745 792.029 461.675C756.677 475.286 738.74 470.119 720.44 464.853C658.296 446.965 653.801 492.094 582.212 471.488C567.635 467.291 553.331 463.174 524.632 474.226C522.225 475.156 518.547 475.046 516.435 473.987C514.323 472.927 514.573 471.308 516.98 470.379C552.332 456.768 570.269 461.935 588.569 467.201C650.713 485.089 655.208 439.959 726.775 460.565C741.374 464.763 755.678 468.88 784.378 457.827ZM524.632 406.172C522.225 407.101 518.547 406.991 516.435 405.932C514.323 404.873 514.573 403.254 516.98 402.324C552.332 388.713 570.269 393.88 588.569 399.146C650.713 417.034 655.208 371.905 726.775 392.511C741.352 396.708 755.656 400.825 784.355 389.773C786.762 388.843 790.44 388.953 792.551 390.013C794.663 391.072 794.413 392.691 792.007 393.62C756.655 407.231 738.718 402.064 720.417 396.798C658.296 378.91 653.801 424.05 582.212 403.434C567.635 399.236 553.331 395.119 524.632 406.172ZM524.632 428.857C522.225 429.786 518.547 429.676 516.435 428.617C514.323 427.557 514.573 425.939 516.98 425.009C552.332 411.398 570.269 416.565 588.569 421.831C650.713 439.719 655.208 394.589 726.775 415.196C741.352 419.393 755.656 423.51 784.355 412.458C786.762 411.528 790.44 411.638 792.551 412.697C794.663 413.757 794.413 415.376 792.007 416.305C756.655 429.916 738.718 424.749 720.417 419.483C658.296 401.595 653.801 446.735 582.212 426.118C567.635 421.921 553.331 417.804 524.632 428.857ZM524.632 451.541C522.225 452.471 518.547 452.361 516.435 451.302C514.323 450.242 514.573 448.623 516.98 447.694C552.332 434.083 570.269 439.25 588.569 444.516C650.713 462.404 655.208 417.274 726.775 437.881C741.352 442.078 755.656 446.195 784.355 435.142C786.762 434.213 790.44 434.323 792.551 435.382C794.663 436.442 794.413 438.06 792.007 438.99C756.655 452.601 738.718 447.434 720.417 442.168C658.296 424.28 653.801 469.42 582.212 448.803C567.635 444.606 553.331 440.489 524.632 451.541Z" fill="white"/>
<path d="M1042.38 448.827C1044.78 447.898 1048.46 448.008 1050.57 449.067C1052.69 450.126 1052.44 451.745 1050.03 452.675C1014.68 466.286 996.74 461.119 978.44 455.853C916.296 437.965 911.801 483.094 840.212 462.488C825.635 458.291 811.331 454.174 782.632 465.226C780.225 466.156 776.547 466.046 774.435 464.987C772.323 463.927 772.573 462.308 774.98 461.379C810.332 447.768 828.269 452.935 846.569 458.201C908.713 476.089 913.208 430.959 984.775 451.565C999.374 455.763 1013.68 459.88 1042.38 448.827ZM782.632 397.172C780.225 398.101 776.547 397.991 774.435 396.932C772.323 395.873 772.573 394.254 774.98 393.324C810.332 379.713 828.269 384.88 846.569 390.146C908.713 408.034 913.208 362.905 984.775 383.511C999.352 387.708 1013.66 391.825 1042.35 380.773C1044.76 379.843 1048.44 379.953 1050.55 381.013C1052.66 382.072 1052.41 383.691 1050.01 384.62C1014.65 398.231 996.718 393.064 978.417 387.798C916.296 369.91 911.801 415.05 840.212 394.434C825.635 390.236 811.331 386.119 782.632 397.172ZM782.632 419.857C780.225 420.786 776.547 420.676 774.435 419.617C772.323 418.557 772.573 416.939 774.98 416.009C810.332 402.398 828.269 407.565 846.569 412.831C908.713 430.719 913.208 385.589 984.775 406.196C999.352 410.393 1013.66 414.51 1042.35 403.458C1044.76 402.528 1048.44 402.638 1050.55 403.697C1052.66 404.757 1052.41 406.376 1050.01 407.305C1014.65 420.916 996.718 415.749 978.417 410.483C916.296 392.595 911.801 437.735 840.212 417.118C825.635 412.921 811.331 408.804 782.632 419.857ZM782.632 442.541C780.225 443.471 776.547 443.361 774.435 442.302C772.323 441.242 772.573 439.623 774.98 438.694C810.332 425.083 828.269 430.25 846.569 435.516C908.713 453.404 913.208 408.274 984.775 428.881C999.352 433.078 1013.66 437.195 1042.35 426.142C1044.76 425.213 1048.44 425.323 1050.55 426.382C1052.66 427.442 1052.41 429.06 1050.01 429.99C1014.65 443.601 996.718 438.434 978.417 433.168C916.296 415.28 911.801 460.42 840.212 439.803C825.635 435.606 811.331 431.489 782.632 442.541Z" fill="white"/>
<path d="M1299.38 439.827C1301.78 438.898 1305.46 439.008 1307.57 440.067C1309.69 441.126 1309.44 442.745 1307.03 443.675C1271.68 457.286 1253.74 452.119 1235.44 446.853C1173.3 428.965 1168.8 474.094 1097.21 453.488C1082.63 449.291 1068.33 445.174 1039.63 456.226C1037.22 457.156 1033.55 457.046 1031.43 455.987C1029.32 454.927 1029.57 453.308 1031.98 452.379C1067.33 438.768 1085.27 443.935 1103.57 449.201C1165.71 467.089 1170.21 421.959 1241.77 442.565C1256.37 446.763 1270.68 450.88 1299.38 439.827ZM1039.63 388.172C1037.22 389.101 1033.55 388.991 1031.43 387.932C1029.32 386.873 1029.57 385.254 1031.98 384.324C1067.33 370.713 1085.27 375.88 1103.57 381.146C1165.71 399.034 1170.21 353.905 1241.77 374.511C1256.35 378.708 1270.66 382.825 1299.35 371.773C1301.76 370.843 1305.44 370.953 1307.55 372.013C1309.66 373.072 1309.41 374.691 1307.01 375.62C1271.65 389.231 1253.72 384.064 1235.42 378.798C1173.3 360.91 1168.8 406.05 1097.21 385.434C1082.63 381.236 1068.33 377.119 1039.63 388.172ZM1039.63 410.857C1037.22 411.786 1033.55 411.676 1031.43 410.617C1029.32 409.557 1029.57 407.939 1031.98 407.009C1067.33 393.398 1085.27 398.565 1103.57 403.831C1165.71 421.719 1170.21 376.589 1241.77 397.196C1256.35 401.393 1270.66 405.51 1299.35 394.458C1301.76 393.528 1305.44 393.638 1307.55 394.697C1309.66 395.757 1309.41 397.376 1307.01 398.305C1271.65 411.916 1253.72 406.749 1235.42 401.483C1173.3 383.595 1168.8 428.735 1097.21 408.118C1082.63 403.921 1068.33 399.804 1039.63 410.857ZM1039.63 433.541C1037.22 434.471 1033.55 434.361 1031.43 433.302C1029.32 432.242 1029.57 430.623 1031.98 429.694C1067.33 416.083 1085.27 421.25 1103.57 426.516C1165.71 444.404 1170.21 399.274 1241.77 419.881C1256.35 424.078 1270.66 428.195 1299.35 417.142C1301.76 416.213 1305.44 416.323 1307.55 417.382C1309.66 418.442 1309.41 420.06 1307.01 420.99C1271.65 434.601 1253.72 429.434 1235.42 424.168C1173.3 406.28 1168.8 451.42 1097.21 430.803C1082.63 426.606 1068.33 422.489 1039.63 433.541Z" fill="white"/>
<path d="M1556.38 430.827C1558.78 429.898 1562.46 430.008 1564.57 431.067C1566.69 432.126 1566.44 433.745 1564.03 434.675C1528.68 448.286 1510.74 443.119 1492.44 437.853C1430.3 419.965 1425.8 465.094 1354.21 444.488C1339.63 440.291 1325.33 436.174 1296.63 447.226C1294.22 448.156 1290.55 448.046 1288.43 446.987C1286.32 445.927 1286.57 444.308 1288.98 443.379C1324.33 429.768 1342.27 434.935 1360.57 440.201C1422.71 458.089 1427.21 412.959 1498.77 433.565C1513.37 437.763 1527.68 441.88 1556.38 430.827ZM1296.63 379.172C1294.22 380.101 1290.55 379.991 1288.43 378.932C1286.32 377.873 1286.57 376.254 1288.98 375.324C1324.33 361.713 1342.27 366.88 1360.57 372.146C1422.71 390.034 1427.21 344.905 1498.77 365.511C1513.35 369.708 1527.66 373.825 1556.35 362.773C1558.76 361.843 1562.44 361.953 1564.55 363.013C1566.66 364.072 1566.41 365.691 1564.01 366.62C1528.65 380.231 1510.72 375.064 1492.42 369.798C1430.3 351.91 1425.8 397.05 1354.21 376.434C1339.63 372.236 1325.33 368.119 1296.63 379.172ZM1296.63 401.857C1294.22 402.786 1290.55 402.676 1288.43 401.617C1286.32 400.557 1286.57 398.939 1288.98 398.009C1324.33 384.398 1342.27 389.565 1360.57 394.831C1422.71 412.719 1427.21 367.589 1498.77 388.196C1513.35 392.393 1527.66 396.51 1556.35 385.458C1558.76 384.528 1562.44 384.638 1564.55 385.697C1566.66 386.757 1566.41 388.376 1564.01 389.305C1528.65 402.916 1510.72 397.749 1492.42 392.483C1430.3 374.595 1425.8 419.735 1354.21 399.118C1339.63 394.921 1325.33 390.804 1296.63 401.857ZM1296.63 424.541C1294.22 425.471 1290.55 425.361 1288.43 424.302C1286.32 423.242 1286.57 421.623 1288.98 420.694C1324.33 407.083 1342.27 412.25 1360.57 417.516C1422.71 435.404 1427.21 390.274 1498.77 410.881C1513.35 415.078 1527.66 419.195 1556.35 408.142C1558.76 407.213 1562.44 407.323 1564.55 408.382C1566.66 409.442 1566.41 411.06 1564.01 411.99C1528.65 425.601 1510.72 420.434 1492.42 415.168C1430.3 397.28 1425.8 442.42 1354.21 421.803C1339.63 417.606 1325.33 413.489 1296.63 424.541Z" fill="white"/>
<path d="M528.378 533.827C530.784 532.898 534.463 533.008 536.574 534.067C538.686 535.126 538.436 536.745 536.029 537.675C500.677 551.286 482.74 546.119 464.44 540.853C402.296 522.965 397.801 568.094 326.212 547.488C311.635 543.291 297.331 539.174 268.632 550.226C266.225 551.156 262.547 551.046 260.435 549.987C258.323 548.927 258.573 547.308 260.98 546.379C296.332 532.768 314.269 537.935 332.569 543.201C394.713 561.089 399.208 515.959 470.775 536.565C485.374 540.763 499.678 544.88 528.378 533.827ZM268.632 482.172C266.225 483.101 262.547 482.991 260.435 481.932C258.323 480.873 258.573 479.254 260.98 478.324C296.332 464.713 314.269 469.88 332.569 475.146C394.713 493.034 399.208 447.905 470.775 468.511C485.352 472.708 499.656 476.825 528.355 465.773C530.762 464.843 534.44 464.953 536.551 466.013C538.663 467.072 538.413 468.691 536.007 469.62C500.655 483.231 482.718 478.064 464.417 472.798C402.296 454.91 397.801 500.05 326.212 479.434C311.635 475.236 297.331 471.119 268.632 482.172ZM268.632 504.857C266.225 505.786 262.547 505.676 260.435 504.617C258.323 503.557 258.573 501.939 260.98 501.009C296.332 487.398 314.269 492.565 332.569 497.831C394.713 515.719 399.208 470.589 470.775 491.196C485.352 495.393 499.656 499.51 528.355 488.458C530.762 487.528 534.44 487.638 536.551 488.697C538.663 489.757 538.413 491.376 536.007 492.305C500.655 505.916 482.718 500.749 464.417 495.483C402.296 477.595 397.801 522.735 326.212 502.118C311.635 497.921 297.331 493.804 268.632 504.857ZM268.632 527.541C266.225 528.471 262.547 528.361 260.435 527.302C258.323 526.242 258.573 524.623 260.98 523.694C296.332 510.083 314.269 515.25 332.569 520.516C394.713 538.404 399.208 493.274 470.775 513.881C485.352 518.078 499.656 522.195 528.355 511.142C530.762 510.213 534.44 510.323 536.551 511.382C538.663 512.442 538.413 514.06 536.007 514.99C500.655 528.601 482.718 523.434 464.417 518.168C402.296 500.28 397.801 545.42 326.212 524.803C311.635 520.606 297.331 516.489 268.632 527.541Z" fill="white"/>
<path d="M784.378 547.827C786.784 546.898 790.463 547.008 792.574 548.067C794.686 549.126 794.436 550.745 792.029 551.675C756.677 565.286 738.74 560.119 720.44 554.853C658.296 536.965 653.801 582.094 582.212 561.488C567.635 557.291 553.331 553.174 524.632 564.226C522.225 565.156 518.547 565.046 516.435 563.987C514.323 562.927 514.573 561.308 516.98 560.379C552.332 546.768 570.269 551.935 588.569 557.201C650.713 575.089 655.208 529.959 726.775 550.565C741.374 554.763 755.678 558.88 784.378 547.827ZM524.632 496.172C522.225 497.101 518.547 496.991 516.435 495.932C514.323 494.873 514.573 493.254 516.98 492.324C552.332 478.713 570.269 483.88 588.569 489.146C650.713 507.034 655.208 461.905 726.775 482.511C741.352 486.708 755.656 490.825 784.355 479.773C786.762 478.843 790.44 478.953 792.551 480.013C794.663 481.072 794.413 482.691 792.007 483.62C756.655 497.231 738.718 492.064 720.417 486.798C658.296 468.91 653.801 514.05 582.212 493.434C567.635 489.236 553.331 485.119 524.632 496.172ZM524.632 518.857C522.225 519.786 518.547 519.676 516.435 518.617C514.323 517.557 514.573 515.939 516.98 515.009C552.332 501.398 570.269 506.565 588.569 511.831C650.713 529.719 655.208 484.589 726.775 505.196C741.352 509.393 755.656 513.51 784.355 502.458C786.762 501.528 790.44 501.638 792.551 502.697C794.663 503.757 794.413 505.376 792.007 506.305C756.655 519.916 738.718 514.749 720.417 509.483C658.296 491.595 653.801 536.735 582.212 516.118C567.635 511.921 553.331 507.804 524.632 518.857ZM524.632 541.541C522.225 542.471 518.547 542.361 516.435 541.302C514.323 540.242 514.573 538.623 516.98 537.694C552.332 524.083 570.269 529.25 588.569 534.516C650.713 552.404 655.208 507.274 726.775 527.881C741.352 532.078 755.656 536.195 784.355 525.142C786.762 524.213 790.44 524.323 792.551 525.382C794.663 526.442 794.413 528.06 792.007 528.99C756.655 542.601 738.718 537.434 720.417 532.168C658.296 514.28 653.801 559.42 582.212 538.803C567.635 534.606 553.331 530.489 524.632 541.541Z" fill="white"/>
<path d="M1042.38 538.827C1044.78 537.898 1048.46 538.008 1050.57 539.067C1052.69 540.126 1052.44 541.745 1050.03 542.675C1014.68 556.286 996.74 551.119 978.44 545.853C916.296 527.965 911.801 573.094 840.212 552.488C825.635 548.291 811.331 544.174 782.632 555.226C780.225 556.156 776.547 556.046 774.435 554.987C772.323 553.927 772.573 552.308 774.98 551.379C810.332 537.768 828.269 542.935 846.569 548.201C908.713 566.089 913.208 520.959 984.775 541.565C999.374 545.763 1013.68 549.88 1042.38 538.827ZM782.632 487.172C780.225 488.101 776.547 487.991 774.435 486.932C772.323 485.873 772.573 484.254 774.98 483.324C810.332 469.713 828.269 474.88 846.569 480.146C908.713 498.034 913.208 452.905 984.775 473.511C999.352 477.708 1013.66 481.825 1042.35 470.773C1044.76 469.843 1048.44 469.953 1050.55 471.013C1052.66 472.072 1052.41 473.691 1050.01 474.62C1014.65 488.231 996.718 483.064 978.417 477.798C916.296 459.91 911.801 505.05 840.212 484.434C825.635 480.236 811.331 476.119 782.632 487.172ZM782.632 509.857C780.225 510.786 776.547 510.676 774.435 509.617C772.323 508.557 772.573 506.939 774.98 506.009C810.332 492.398 828.269 497.565 846.569 502.831C908.713 520.719 913.208 475.589 984.775 496.196C999.352 500.393 1013.66 504.51 1042.35 493.458C1044.76 492.528 1048.44 492.638 1050.55 493.697C1052.66 494.757 1052.41 496.376 1050.01 497.305C1014.65 510.916 996.718 505.749 978.417 500.483C916.296 482.595 911.801 527.735 840.212 507.118C825.635 502.921 811.331 498.804 782.632 509.857ZM782.632 532.541C780.225 533.471 776.547 533.361 774.435 532.302C772.323 531.242 772.573 529.623 774.98 528.694C810.332 515.083 828.269 520.25 846.569 525.516C908.713 543.404 913.208 498.274 984.775 518.881C999.352 523.078 1013.66 527.195 1042.35 516.142C1044.76 515.213 1048.44 515.323 1050.55 516.382C1052.66 517.442 1052.41 519.06 1050.01 519.99C1014.65 533.601 996.718 528.434 978.417 523.168C916.296 505.28 911.801 550.42 840.212 529.803C825.635 525.606 811.331 521.489 782.632 532.541Z" fill="white"/>
<path d="M1299.38 529.827C1301.78 528.898 1305.46 529.008 1307.57 530.067C1309.69 531.126 1309.44 532.745 1307.03 533.675C1271.68 547.286 1253.74 542.119 1235.44 536.853C1173.3 518.965 1168.8 564.094 1097.21 543.488C1082.63 539.291 1068.33 535.174 1039.63 546.226C1037.22 547.156 1033.55 547.046 1031.43 545.987C1029.32 544.927 1029.57 543.308 1031.98 542.379C1067.33 528.768 1085.27 533.935 1103.57 539.201C1165.71 557.089 1170.21 511.959 1241.77 532.565C1256.37 536.763 1270.68 540.88 1299.38 529.827ZM1039.63 478.172C1037.22 479.101 1033.55 478.991 1031.43 477.932C1029.32 476.873 1029.57 475.254 1031.98 474.324C1067.33 460.713 1085.27 465.88 1103.57 471.146C1165.71 489.034 1170.21 443.905 1241.77 464.511C1256.35 468.708 1270.66 472.825 1299.35 461.773C1301.76 460.843 1305.44 460.953 1307.55 462.013C1309.66 463.072 1309.41 464.691 1307.01 465.62C1271.65 479.231 1253.72 474.064 1235.42 468.798C1173.3 450.91 1168.8 496.05 1097.21 475.434C1082.63 471.236 1068.33 467.119 1039.63 478.172ZM1039.63 500.857C1037.22 501.786 1033.55 501.676 1031.43 500.617C1029.32 499.557 1029.57 497.939 1031.98 497.009C1067.33 483.398 1085.27 488.565 1103.57 493.831C1165.71 511.719 1170.21 466.589 1241.77 487.196C1256.35 491.393 1270.66 495.51 1299.35 484.458C1301.76 483.528 1305.44 483.638 1307.55 484.697C1309.66 485.757 1309.41 487.376 1307.01 488.305C1271.65 501.916 1253.72 496.749 1235.42 491.483C1173.3 473.595 1168.8 518.735 1097.21 498.118C1082.63 493.921 1068.33 489.804 1039.63 500.857ZM1039.63 523.541C1037.22 524.471 1033.55 524.361 1031.43 523.302C1029.32 522.242 1029.57 520.623 1031.98 519.694C1067.33 506.083 1085.27 511.25 1103.57 516.516C1165.71 534.404 1170.21 489.274 1241.77 509.881C1256.35 514.078 1270.66 518.195 1299.35 507.142C1301.76 506.213 1305.44 506.323 1307.55 507.382C1309.66 508.442 1309.41 510.06 1307.01 510.99C1271.65 524.601 1253.72 519.434 1235.42 514.168C1173.3 496.28 1168.8 541.42 1097.21 520.803C1082.63 516.606 1068.33 512.489 1039.63 523.541Z" fill="white"/>
<path d="M1556.38 520.827C1558.78 519.898 1562.46 520.008 1564.57 521.067C1566.69 522.126 1566.44 523.745 1564.03 524.675C1528.68 538.286 1510.74 533.119 1492.44 527.853C1430.3 509.965 1425.8 555.094 1354.21 534.488C1339.63 530.291 1325.33 526.174 1296.63 537.226C1294.22 538.156 1290.55 538.046 1288.43 536.987C1286.32 535.927 1286.57 534.308 1288.98 533.379C1324.33 519.768 1342.27 524.935 1360.57 530.201C1422.71 548.089 1427.21 502.959 1498.77 523.565C1513.37 527.763 1527.68 531.88 1556.38 520.827ZM1296.63 469.172C1294.22 470.101 1290.55 469.991 1288.43 468.932C1286.32 467.873 1286.57 466.254 1288.98 465.324C1324.33 451.713 1342.27 456.88 1360.57 462.146C1422.71 480.034 1427.21 434.905 1498.77 455.511C1513.35 459.708 1527.66 463.825 1556.35 452.773C1558.76 451.843 1562.44 451.953 1564.55 453.013C1566.66 454.072 1566.41 455.691 1564.01 456.62C1528.65 470.231 1510.72 465.064 1492.42 459.798C1430.3 441.91 1425.8 487.05 1354.21 466.434C1339.63 462.236 1325.33 458.119 1296.63 469.172ZM1296.63 491.857C1294.22 492.786 1290.55 492.676 1288.43 491.617C1286.32 490.557 1286.57 488.939 1288.98 488.009C1324.33 474.398 1342.27 479.565 1360.57 484.831C1422.71 502.719 1427.21 457.589 1498.77 478.196C1513.35 482.393 1527.66 486.51 1556.35 475.458C1558.76 474.528 1562.44 474.638 1564.55 475.697C1566.66 476.757 1566.41 478.376 1564.01 479.305C1528.65 492.916 1510.72 487.749 1492.42 482.483C1430.3 464.595 1425.8 509.735 1354.21 489.118C1339.63 484.921 1325.33 480.804 1296.63 491.857ZM1296.63 514.541C1294.22 515.471 1290.55 515.361 1288.43 514.302C1286.32 513.242 1286.57 511.623 1288.98 510.694C1324.33 497.083 1342.27 502.25 1360.57 507.516C1422.71 525.404 1427.21 480.274 1498.77 500.881C1513.35 505.078 1527.66 509.195 1556.35 498.142C1558.76 497.213 1562.44 497.323 1564.55 498.382C1566.66 499.442 1566.41 501.06 1564.01 501.99C1528.65 515.601 1510.72 510.434 1492.42 505.168C1430.3 487.28 1425.8 532.42 1354.21 511.803C1339.63 507.606 1325.33 503.489 1296.63 514.541Z" fill="white"/>
<path d="M269.373 182.823C271.78 181.894 275.458 182.003 277.57 183.063C279.682 184.122 279.432 185.741 277.025 186.67C241.673 200.281 223.736 195.115 205.436 189.848C143.292 171.96 138.797 217.09 67.2074 196.484C52.6307 192.287 38.3265 188.169 9.62731 199.222C7.22057 200.151 3.54235 200.041 1.43078 198.982C-0.680792 197.923 -0.431036 196.304 1.9757 195.375C37.3275 181.764 55.2645 186.93 73.5648 192.197C135.709 210.085 140.204 164.955 211.771 185.561C226.37 189.758 240.674 193.876 269.373 182.823ZM9.62731 131.167C7.22057 132.097 3.54235 131.987 1.43078 130.927C-0.680792 129.868 -0.431036 128.249 1.9757 127.32C37.3275 113.709 55.2645 118.876 73.5648 124.142C135.709 142.03 140.204 96.9002 211.771 117.506C226.347 121.704 240.652 125.821 269.351 114.768C271.757 113.839 275.436 113.949 277.547 115.008C279.659 116.067 279.409 117.686 277.002 118.616C241.651 132.227 223.714 127.06 205.413 121.794C143.292 103.906 138.797 149.045 67.2074 128.429C52.6307 124.232 38.3265 120.115 9.62731 131.167ZM9.62731 153.852C7.22057 154.782 3.54235 154.672 1.43078 153.612C-0.680792 152.553 -0.431036 150.934 1.9757 150.005C37.3275 136.394 55.2645 141.56 73.5648 146.827C135.709 164.715 140.204 119.585 211.771 140.191C226.347 144.389 240.652 148.506 269.351 137.453C271.757 136.524 275.436 136.634 277.547 137.693C279.659 138.752 279.409 140.371 277.002 141.301C241.651 154.912 223.714 149.745 205.413 144.478C143.292 126.59 138.797 171.73 67.2074 151.114C52.6307 146.917 38.3265 142.8 9.62731 153.852ZM9.62731 176.537C7.22057 177.466 3.54235 177.357 1.43078 176.297C-0.680792 175.238 -0.431036 173.619 1.9757 172.69C37.3275 159.079 55.2645 164.245 73.5648 169.512C135.709 187.4 140.204 142.27 211.771 162.876C226.347 167.073 240.652 171.191 269.351 160.138C271.757 159.209 275.436 159.319 277.547 160.378C279.659 161.437 279.409 163.056 277.002 163.985C241.651 177.596 223.714 172.43 205.413 167.163C143.292 149.275 138.797 194.415 67.2074 173.799C52.6307 169.602 38.3265 165.484 9.62731 176.537Z" fill="white"/>
<path d="M269.373 272.823C271.78 271.894 275.458 272.003 277.57 273.063C279.682 274.122 279.432 275.741 277.025 276.67C241.673 290.281 223.736 285.115 205.436 279.848C143.292 261.96 138.797 307.09 67.2074 286.484C52.6307 282.287 38.3265 278.169 9.62731 289.222C7.22057 290.151 3.54235 290.041 1.43078 288.982C-0.680792 287.923 -0.431036 286.304 1.9757 285.375C37.3275 271.764 55.2645 276.93 73.5648 282.197C135.709 300.085 140.204 254.955 211.771 275.561C226.37 279.758 240.674 283.876 269.373 272.823ZM9.62731 221.167C7.22057 222.097 3.54235 221.987 1.43078 220.927C-0.680792 219.868 -0.431036 218.249 1.9757 217.32C37.3275 203.709 55.2645 208.876 73.5648 214.142C135.709 232.03 140.204 186.9 211.771 207.506C226.347 211.704 240.652 215.821 269.351 204.768C271.757 203.839 275.436 203.949 277.547 205.008C279.659 206.067 279.409 207.686 277.002 208.616C241.651 222.227 223.714 217.06 205.413 211.794C143.292 193.906 138.797 239.045 67.2074 218.429C52.6307 214.232 38.3265 210.115 9.62731 221.167ZM9.62731 243.852C7.22057 244.782 3.54235 244.672 1.43078 243.612C-0.680792 242.553 -0.431036 240.934 1.9757 240.005C37.3275 226.394 55.2645 231.56 73.5648 236.827C135.709 254.715 140.204 209.585 211.771 230.191C226.347 234.389 240.652 238.506 269.351 227.453C271.757 226.524 275.436 226.634 277.547 227.693C279.659 228.752 279.409 230.371 277.002 231.301C241.651 244.912 223.714 239.745 205.413 234.478C143.292 216.59 138.797 261.73 67.2074 241.114C52.6307 236.917 38.3265 232.8 9.62731 243.852ZM9.62731 266.537C7.22057 267.466 3.54235 267.357 1.43078 266.297C-0.680792 265.238 -0.431036 263.619 1.9757 262.69C37.3275 249.079 55.2645 254.245 73.5648 259.512C135.709 277.4 140.204 232.27 211.771 252.876C226.347 257.073 240.652 261.191 269.351 250.138C271.757 249.209 275.436 249.319 277.547 250.378C279.659 251.437 279.409 253.056 277.002 253.985C241.651 267.596 223.714 262.43 205.413 257.163C143.292 239.275 138.797 284.415 67.2074 263.799C52.6307 259.602 38.3265 255.484 9.62731 266.537Z" fill="white"/>
<path d="M269.373 362.823C271.78 361.894 275.458 362.003 277.57 363.063C279.682 364.122 279.432 365.741 277.025 366.67C241.673 380.281 223.736 375.115 205.436 369.848C143.292 351.96 138.797 397.09 67.2074 376.484C52.6307 372.287 38.3265 368.169 9.62731 379.222C7.22057 380.151 3.54235 380.041 1.43078 378.982C-0.680792 377.923 -0.431036 376.304 1.9757 375.375C37.3275 361.764 55.2645 366.93 73.5648 372.197C135.709 390.085 140.204 344.955 211.771 365.561C226.37 369.758 240.674 373.876 269.373 362.823ZM9.62731 311.167C7.22057 312.097 3.54235 311.987 1.43078 310.927C-0.680792 309.868 -0.431036 308.249 1.9757 307.32C37.3275 293.709 55.2645 298.876 73.5648 304.142C135.709 322.03 140.204 276.9 211.771 297.506C226.347 301.704 240.652 305.821 269.351 294.768C271.757 293.839 275.436 293.949 277.547 295.008C279.659 296.067 279.409 297.686 277.002 298.616C241.651 312.227 223.714 307.06 205.413 301.794C143.292 283.906 138.797 329.045 67.2074 308.429C52.6307 304.232 38.3265 300.115 9.62731 311.167ZM9.62731 333.852C7.22057 334.782 3.54235 334.672 1.43078 333.612C-0.680792 332.553 -0.431036 330.934 1.9757 330.005C37.3275 316.394 55.2645 321.56 73.5648 326.827C135.709 344.715 140.204 299.585 211.771 320.191C226.347 324.389 240.652 328.506 269.351 317.453C271.757 316.524 275.436 316.634 277.547 317.693C279.659 318.752 279.409 320.371 277.002 321.301C241.651 334.912 223.714 329.745 205.413 324.478C143.292 306.59 138.797 351.73 67.2074 331.114C52.6307 326.917 38.3265 322.8 9.62731 333.852ZM9.62731 356.537C7.22057 357.466 3.54235 357.357 1.43078 356.297C-0.680792 355.238 -0.431036 353.619 1.9757 352.69C37.3275 339.079 55.2645 344.245 73.5648 349.512C135.709 367.4 140.204 322.27 211.771 342.876C226.347 347.073 240.652 351.191 269.351 340.138C271.757 339.209 275.436 339.319 277.547 340.378C279.659 341.437 279.409 343.056 277.002 343.985C241.651 357.596 223.714 352.43 205.413 347.163C143.292 329.275 138.797 374.415 67.2074 353.799C52.6307 349.602 38.3265 345.484 9.62731 356.537Z" fill="white"/>
<path d="M269.373 452.823C271.78 451.894 275.458 452.003 277.57 453.063C279.682 454.122 279.432 455.741 277.025 456.67C241.673 470.281 223.736 465.115 205.436 459.848C143.292 441.96 138.797 487.09 67.2074 466.484C52.6307 462.287 38.3265 458.169 9.62731 469.222C7.22057 470.151 3.54235 470.041 1.43078 468.982C-0.680792 467.923 -0.431036 466.304 1.9757 465.375C37.3275 451.764 55.2645 456.93 73.5648 462.197C135.709 480.085 140.204 434.955 211.771 455.561C226.37 459.758 240.674 463.876 269.373 452.823ZM9.62731 401.167C7.22057 402.097 3.54235 401.987 1.43078 400.927C-0.680792 399.868 -0.431036 398.249 1.9757 397.32C37.3275 383.709 55.2645 388.876 73.5648 394.142C135.709 412.03 140.204 366.9 211.771 387.506C226.347 391.704 240.652 395.821 269.351 384.768C271.757 383.839 275.436 383.949 277.547 385.008C279.659 386.067 279.409 387.686 277.002 388.616C241.651 402.227 223.714 397.06 205.413 391.794C143.292 373.906 138.797 419.045 67.2074 398.429C52.6307 394.232 38.3265 390.115 9.62731 401.167ZM9.62731 423.852C7.22057 424.782 3.54235 424.672 1.43078 423.612C-0.680792 422.553 -0.431036 420.934 1.9757 420.005C37.3275 406.394 55.2645 411.56 73.5648 416.827C135.709 434.715 140.204 389.585 211.771 410.191C226.347 414.389 240.652 418.506 269.351 407.453C271.757 406.524 275.436 406.634 277.547 407.693C279.659 408.752 279.409 410.371 277.002 411.301C241.651 424.912 223.714 419.745 205.413 414.478C143.292 396.59 138.797 441.73 67.2074 421.114C52.6307 416.917 38.3265 412.8 9.62731 423.852ZM9.62731 446.537C7.22057 447.466 3.54235 447.357 1.43078 446.297C-0.680792 445.238 -0.431036 443.619 1.9757 442.69C37.3275 429.079 55.2645 434.245 73.5648 439.512C135.709 457.4 140.204 412.27 211.771 432.876C226.347 437.073 240.652 441.191 269.351 430.138C271.757 429.209 275.436 429.319 277.547 430.378C279.659 431.437 279.409 433.056 277.002 433.985C241.651 447.596 223.714 442.43 205.413 437.163C143.292 419.275 138.797 464.415 67.2074 443.799C52.6307 439.602 38.3265 435.484 9.62731 446.537Z" fill="white"/>
<path d="M269.373 542.823C271.78 541.894 275.458 542.003 277.57 543.063C279.682 544.122 279.432 545.741 277.025 546.67C241.673 560.281 223.736 555.115 205.436 549.848C143.292 531.96 138.797 577.09 67.2074 556.484C52.6307 552.287 38.3265 548.169 9.62731 559.222C7.22057 560.151 3.54235 560.041 1.43078 558.982C-0.680792 557.923 -0.431036 556.304 1.9757 555.375C37.3275 541.764 55.2645 546.93 73.5648 552.197C135.709 570.085 140.204 524.955 211.771 545.561C226.37 549.758 240.674 553.876 269.373 542.823ZM9.62731 491.167C7.22057 492.097 3.54235 491.987 1.43078 490.927C-0.680792 489.868 -0.431036 488.249 1.9757 487.32C37.3275 473.709 55.2645 478.876 73.5648 484.142C135.709 502.03 140.204 456.9 211.771 477.506C226.347 481.704 240.652 485.821 269.351 474.768C271.757 473.839 275.436 473.949 277.547 475.008C279.659 476.067 279.409 477.686 277.002 478.616C241.651 492.227 223.714 487.06 205.413 481.794C143.292 463.906 138.797 509.045 67.2074 488.429C52.6307 484.232 38.3265 480.115 9.62731 491.167ZM9.62731 513.852C7.22057 514.782 3.54235 514.672 1.43078 513.612C-0.680792 512.553 -0.431036 510.934 1.9757 510.005C37.3275 496.394 55.2645 501.56 73.5648 506.827C135.709 524.715 140.204 479.585 211.771 500.191C226.347 504.389 240.652 508.506 269.351 497.453C271.757 496.524 275.436 496.634 277.547 497.693C279.659 498.752 279.409 500.371 277.002 501.301C241.651 514.912 223.714 509.745 205.413 504.478C143.292 486.59 138.797 531.73 67.2074 511.114C52.6307 506.917 38.3265 502.8 9.62731 513.852ZM9.62731 536.537C7.22057 537.466 3.54235 537.357 1.43078 536.297C-0.680792 535.238 -0.431036 533.619 1.9757 532.69C37.3275 519.079 55.2645 524.245 73.5648 529.512C135.709 547.4 140.204 502.27 211.771 522.876C226.347 527.073 240.652 531.191 269.351 520.138C271.757 519.209 275.436 519.319 277.547 520.378C279.659 521.437 279.409 523.056 277.002 523.985C241.651 537.596 223.714 532.43 205.413 527.163C143.292 509.275 138.797 554.415 67.2074 533.799C52.6307 529.602 38.3265 525.484 9.62731 536.537Z" fill="white"/>
</svg>
